<svg xmlns="http://www.w3.org/2000/svg" width="117.259" height="162.975" viewBox="0 0 117.259 162.975">
  <g id="list-icon-white" transform="translate(-3.132)">
    <path id="Path_512" data-name="Path 512" d="M56.411,0H66.623c6.613,2.342,11.763,6.3,14.355,13.053.645,1.691,1.889,2.062,3.536,2.036,4.142-.051,8.291.077,12.434-.038,2.362-.064,3.262.874,3.128,3.185-.115,2.011.089,4.047-.045,6.051-.172,2.572.772,3.74,3.466,3.581,2.649-.153,5.31-.038,7.966-.032,7.672.026,8.919,4.263,8.919,11.928-.345,38.036-.1,75.492,0,113,.013,5.6.37,8.083-4.717,10.214L10.3,162.235c-4.481-1.915-7.148-3.886-7.148-9.024.006-38.36-.038-76.839,0-115.2,0-5.993,1.148-10.042,7.148-10.151,3.083-.057,6.172-.134,9.242.019,2.694.134,3.632-1.015,3.466-3.587-.134-2.011.077-4.04-.045-6.051-.134-2.311.772-3.249,3.128-3.185,4.142.115,8.285-.013,12.434.038,1.64.019,2.885-.345,3.536-2.036C44.641,6.3,49.8,2.349,56.411.006Zm53.962,95.348c0-16.48.057-32.346,0-48.826-.014-3.96.423-5.457,0-6.758-.963-.935-.864-1.134-6.271-1.276-2.987-.077-4.43.772-4.079,3.951.172,1.577-.128,3.2.057,4.774.383,3.236-.932,4.168-4.13,4.149C73.2,51.241,50.449,51.3,27.7,51.3c-4.7,0-4.679-.013-4.73-4.736-.1-9.2.5-7.31-5.912-7.85-3.964-.032-4.53-.095-4.53,3.99V149.021c0,4.238.342,4.19,4.53,4.19,31.046,0,86.281.44,86.281.44s7.032.568,7.032-3.689c0-5.455-.123-10.342,0-16.093.252-11.775,0-26.438,0-38.527ZM61.268,40.6c8.3,0,16.6-.045,24.893.032,2.311.019,3.313-.83,3.223-3.185-.109-2.764-.121-5.534,0-8.3.109-2.445-.8-3.5-3.325-3.408-3.5.128-7.027-.128-10.525.077-2.93.166-4.4-.645-4.1-3.862a12.288,12.288,0,0,0-.568-4.079,9.652,9.652,0,0,0-13.7-6.14c-4.047,2.094-5.693,5.751-5.521,10.04.134,3.364-1.187,4.232-4.27,4.047-3.5-.211-7.021.032-10.525-.07-2.355-.07-3.268.906-3.179,3.223a77.235,77.235,0,0,1-.013,7.972c-.179,2.789.913,3.753,3.7,3.7,7.978-.134,15.957-.045,23.935-.051Z" fill="#233843"/>
    <path id="Path_513" data-name="Path 513" d="M96.095,110.6c-8.183,0-16.359-.067-24.535.034-2.821.034-3.7-.613-3.632-2.426.211-5.361-.8-4.609,6.9-4.63,15.3-.042,30.592.038,45.892-.05,3.089-.017,4.053.642,3.957,2.64-.243,5.037.721,4.387-6.587,4.424-7.327.038-14.661.008-21.988.008Z" transform="translate(-27.955 -33.748)" fill="#233843"/>
    <path id="Path_516" data-name="Path 516" d="M40.168,103.62q3.8,0,3.8,4.178,0,3.8-4.178,3.8-3.8,0-3.8-4.178Q35.99,103.615,40.168,103.62Z" transform="translate(-9.694 -34.272)" fill="#233843"/>
    <path id="Path_519" data-name="Path 519" d="M98.678,29.041a5.322,5.322,0,1,1-10.64-.249,5.322,5.322,0,0,1,10.64.255Z" transform="translate(-31.845 -8.566)" fill="#233843"/>
    <path id="Path_520" data-name="Path 520" d="M96.095,110.6c-8.183,0-16.359-.067-24.535.034-2.821.034-3.7-.613-3.632-2.426.211-5.361-.8-4.609,6.9-4.63,15.3-.042,30.592.038,45.892-.05,3.089-.017,4.053.642,3.957,2.64-.243,5.037.721,4.387-6.587,4.424-7.327.038-14.661.008-21.988.008Z" transform="translate(-27.955 -13.837)" fill="#233843"/>
    <path id="Path_521" data-name="Path 521" d="M40.168,103.62q3.8,0,3.8,4.178,0,3.8-4.178,3.8-3.8,0-3.8-4.178Q35.99,103.615,40.168,103.62Z" transform="translate(-9.694 -14.361)" fill="#233843"/>
    <path id="Path_522" data-name="Path 522" d="M96.095,110.6c-8.183,0-16.359-.067-24.535.034-2.821.034-3.7-.613-3.632-2.426.211-5.361-.8-4.609,6.9-4.63,15.3-.042,30.592.038,45.892-.05,3.089-.017,4.053.642,3.957,2.64-.243,5.037.721,4.387-6.587,4.424-7.327.038-14.661.008-21.988.008Z" transform="translate(-27.955 5.642)" fill="#233843"/>
    <path id="Path_523" data-name="Path 523" d="M40.168,103.62q3.8,0,3.8,4.178,0,3.8-4.178,3.8-3.8,0-3.8-4.178Q35.99,103.615,40.168,103.62Z" transform="translate(-9.694 5.118)" fill="#233843"/>
    <path id="Path_526" data-name="Path 526" d="M96.095,110.6c-8.183,0-16.359-.067-24.535.034-2.821.034-3.7-.613-3.632-2.426.211-5.361-.8-4.609,6.9-4.63,15.3-.042,30.592.038,45.892-.05,3.089-.017,4.053.642,3.957,2.64-.243,5.037.721,4.387-6.587,4.424-7.327.038-14.661.008-21.988.008Z" transform="translate(-27.706 25.554)" fill="#233843"/>
    <path id="Path_527" data-name="Path 527" d="M40.168,103.62q3.8,0,3.8,4.178,0,3.8-4.178,3.8-3.8,0-3.8-4.178Q35.99,103.615,40.168,103.62Z" transform="translate(-9.445 25.03)" fill="#233843"/>
  </g>
</svg>
